<svg width="16" height="17" viewBox="0 0 16 17" fill="none" xmlns="http://www.w3.org/2000/svg">
<g clip-path="url(#clip0_6229_943)">
<path d="M12.3212 8.28057C12.2494 9.32266 11.6552 10.0543 10.9691 10.3643C10.2417 10.693 9.50638 10.5117 9.13926 9.91307C8.53821 8.93288 8.95122 8.25069 9.35061 7.59094C9.80346 6.84285 10.3168 5.99491 9.82445 4.34597C9.43578 3.04419 8.67459 1.95129 7.562 1.0976C7.21516 0.831505 6.88622 0.63138 6.61927 0.488068C6.99211 1.39563 7.47697 3.08447 6.9705 4.95035C6.64928 6.13388 5.80034 7.03076 4.97933 7.8981C3.89799 9.04054 2.77979 10.2218 2.77979 12.1093C2.77979 13.5735 3.28993 14.74 4.29601 15.5763C5.05788 16.2095 5.83531 16.4561 5.84306 16.458H7.69814L7.65931 16.4573C7.65216 16.4517 6.94542 15.8939 6.93324 15.2541C6.92757 14.9551 7.0845 14.6682 7.39966 14.4015C7.87306 14.0009 8.13324 13.5696 8.19514 13.083C8.23299 12.7853 8.19473 12.4707 8.07841 12.1311C8.86358 12.4603 9.67577 13.1793 9.95101 14.0719C10.1982 14.8734 9.96953 15.6977 9.2904 16.458H11.3206C12.6505 15.4162 13.3991 14.1677 13.5459 12.7471C13.733 10.9359 12.9049 9.23007 12.3212 8.28057Z" fill="black"/>
<path d="M7.698 16.458L9.26351 16.4881C9.2726 16.4781 9.2813 16.468 9.29023 16.458H7.698Z" fill="black"/>
</g>
<defs>
<clipPath id="clip0_6229_943">
<rect width="15.2" height="16" fill="white" transform="translate(0.576172 0.488068)"/>
</clipPath>
</defs>
</svg>
